<?xml version="1.0" encoding="UTF-8"?>
<!DOCTYPE svg PUBLIC "-//W3C//DTD SVG 1.1//EN" "http://www.w3.org/Graphics/SVG/1.1/DTD/svg11.dtd">
<!-- Creator: CorelDRAW 2021 (64-Bit) -->
<svg xmlns="http://www.w3.org/2000/svg" xml:space="preserve" width="1.25083in" height="0.799697in" version="1.1" style="shape-rendering:geometricPrecision; text-rendering:geometricPrecision; image-rendering:optimizeQuality; fill-rule:evenodd; clip-rule:evenodd"
viewBox="0 0 1328.15 849.13"
 xmlns:xlink="http://www.w3.org/1999/xlink"
 xmlns:xodm="http://www.corel.com/coreldraw/odm/2003">
 <defs>
  <style type="text/css">
   <![CDATA[
    .fil0 {fill:#000066}
   ]]>
  </style>
 </defs>
 <g id="Layer_x0020_1">
  <metadata id="CorelCorpID_0Corel-Layer"/>
  <path class="fil0" d="M782.46 848l240.98 1.08c167.59,0 304.71,-137.12 304.71,-304.71l0 -503.04c0,-22.73 -18.6,-41.34 -41.34,-41.34l-1245.47 0c-22.74,0 -41.34,18.6 -41.34,41.34l0 766.4c0,22.74 18.61,41.33 41.34,41.34l165.23 0.05 0.05 -635.75c0,-10.59 8.67,-19.26 19.26,-19.26l870.32 0c10.59,0 19.26,8.67 19.26,19.26l-0.6 250.2c-0.26,109.5 -89.6,199.1 -199.1,199.1l-26.42 0 0 -313.85c0,-9.33 -7.64,-16.98 -16.98,-16.98l-171.3 0c-9.34,0 -16.98,7.64 -16.98,16.98l0 498.09 98.37 1.08zm-437.23 -185.61l0 -227.91c0,-56.45 46.18,-102.63 102.63,-102.63l102.18 0 33.38 0c2.78,0 5.05,2.27 5.05,5.05l0 176.3c0,2.78 -2.27,5.05 -5.05,5.05l-32.93 0 0 226.04c0,56.44 -46.18,102.62 -102.63,102.62l-102.63 0 -33.23 0c-2.78,0 -5.05,-2.27 -5.05,-5.05l0 -176.3c0,-1.34 0.53,-2.56 2.88,-3.91l35.4 0.74z"/>
 </g>
</svg>
